<?xml version="1.0" encoding="UTF-8" standalone="no"?><!DOCTYPE svg PUBLIC "-//W3C//DTD SVG 1.1//EN" "http://www.w3.org/Graphics/SVG/1.1/DTD/svg11.dtd"><svg width="100%" height="100%" viewBox="0 0 200 200" version="1.1" xmlns="http://www.w3.org/2000/svg" xmlns:xlink="http://www.w3.org/1999/xlink" xml:space="preserve" xmlns:serif="http://www.serif.com/" style="fill-rule:evenodd;clip-rule:evenodd;stroke-linejoin:round;stroke-miterlimit:1.41421;"><path d="M153.116,196.449l-117.134,0c-11.761,0 -21.297,-9.464 -21.297,-21.137l0,-73.98c0,-9.834 6.799,-18.03 15.973,-20.392l0,-16.598l0,-0.011c0,-35.019 28.607,-63.412 63.891,-63.412c34.086,0 61.862,26.528 63.715,59.903c0.032,0.301 0.176,0.566 0.176,0.877c0,0.185 -0.096,0.339 -0.107,0.529c0.022,0.703 0.107,1.395 0.107,2.103l0,16.609c9.174,2.362 15.973,10.558 15.973,20.392l0,73.98c0,11.673 -9.536,21.137 -21.297,21.137Zm-10.649,-132.107c0,-26.279 -21.451,-47.57 -47.918,-47.57c-26.467,0 -47.918,21.291 -47.918,47.57l0,15.852l95.836,0l0,-15.852Zm15.973,42.274c0,-5.839 -4.771,-10.569 -10.649,-10.569l-106.485,0c-5.878,0 -10.648,4.73 -10.648,10.569l0,63.411c0,5.834 4.77,10.569 10.648,10.569l106.485,0c5.878,0 10.649,-4.735 10.649,-10.569l0,-63.411Zm-63.891,47.559c-5.878,0 -10.649,-4.735 -10.649,-10.569l0,-10.569c0,-5.839 4.771,-10.568 10.649,-10.568c5.878,0 10.648,4.729 10.648,10.568l0,10.569c0,5.829 -4.77,10.569 -10.648,10.569Z" style="fill:#353c8a;fill-rule:nonzero;"/></svg>