<?xml version="1.0" standalone="no"?><!DOCTYPE svg PUBLIC "-//W3C//DTD SVG 1.1//EN" "http://www.w3.org/Graphics/SVG/1.1/DTD/svg11.dtd"><svg t="1514210107681" class="icon" style="" viewBox="0 0 1024 1024" version="1.1" xmlns="http://www.w3.org/2000/svg" p-id="2431" xmlns:xlink="http://www.w3.org/1999/xlink" width="200" height="200"><defs><style type="text/css"></style></defs><path d="M518.4 12.8256C246.2464 12.8256 25.6256 233.4464 25.6256 505.6c0 272.1536 220.6208 492.7744 492.7744 492.7744 272.1536 0 492.7744-220.6208 492.7744-492.7744 0-272.1536-220.6208-492.7744-492.7744-492.7744z m241.1008 370.8928L483.4816 712.6528a43.4176 43.4176 0 0 1-61.1712 5.3504l-3.8784-3.2512a44.4928 44.4928 0 0 1-6.4512-6.72l-121.92-118.5792a43.4048 43.4048 0 0 1-5.3504-61.1584l3.264-3.8912a43.4048 43.4048 0 0 1 61.1584-5.3504l97.3696 94.7072 242.5984-289.1136a43.4048 43.4048 0 0 1 61.1584-5.3504l3.8912 3.2512a43.4304 43.4304 0 0 1 5.3504 61.1712z" fill="#19AA8D" p-id="2432"></path></svg>